<svg xmlns="http://www.w3.org/2000/svg" xmlns:xlink="http://www.w3.org/1999/xlink" width="50" zoomAndPan="magnify" viewBox="0 0 37.5 37.499999" height="50" preserveAspectRatio="xMidYMid meet" version="1.0"><defs><g/><clipPath id="cdab1ddf92"><path d="M 1.035156 1.035156 L 35.96875 1.035156 L 35.96875 35.96875 L 1.035156 35.96875 Z M 1.035156 1.035156 " clip-rule="nonzero"/></clipPath><clipPath id="dc2ac68f9c"><path d="M 18.503906 1.035156 C 8.855469 1.035156 1.035156 8.855469 1.035156 18.503906 C 1.035156 28.148438 8.855469 35.96875 18.503906 35.96875 C 28.148438 35.96875 35.96875 28.148438 35.96875 18.503906 C 35.96875 8.855469 28.148438 1.035156 18.503906 1.035156 Z M 18.503906 1.035156 " clip-rule="nonzero"/></clipPath><clipPath id="376e857dff"><path d="M 0.0351562 0.0351562 L 34.96875 0.0351562 L 34.96875 34.96875 L 0.0351562 34.96875 Z M 0.0351562 0.0351562 " clip-rule="nonzero"/></clipPath><clipPath id="ed719200e9"><path d="M 17.503906 0.0351562 C 7.855469 0.0351562 0.0351562 7.855469 0.0351562 17.503906 C 0.0351562 27.148438 7.855469 34.96875 17.503906 34.96875 C 27.148438 34.96875 34.96875 27.148438 34.96875 17.503906 C 34.96875 7.855469 27.148438 0.0351562 17.503906 0.0351562 Z M 17.503906 0.0351562 " clip-rule="nonzero"/></clipPath><clipPath id="6a533b7b05"><rect x="0" width="35" y="0" height="35"/></clipPath></defs><g clip-path="url(#cdab1ddf92)"><g clip-path="url(#dc2ac68f9c)"><g transform="matrix(1, 0, 0, 1, 1, 1)"><g clip-path="url(#6a533b7b05)"><g clip-path="url(#376e857dff)"><g clip-path="url(#ed719200e9)"><path fill="#252422" d="M 0.0351562 0.0351562 L 34.96875 0.0351562 L 34.96875 34.96875 L 0.0351562 34.96875 Z M 0.0351562 0.0351562 " fill-opacity="1" fill-rule="nonzero"/></g></g></g></g></g></g><g fill="#fffcf2" fill-opacity="1"><g transform="translate(12.993122, 24.991765)"><g><path d="M 9.96875 -6.5 L 1.3125 -2.59375 L 1.3125 -4.296875 L 7.734375 -7.0625 L 7.734375 -7.28125 L 1.3125 -10.03125 L 1.3125 -11.71875 L 9.96875 -7.8125 Z M 9.96875 -6.5 "/></g></g></g></svg>