<svg xmlns="http://www.w3.org/2000/svg" xmlns:xlink="http://www.w3.org/1999/xlink" width="245" zoomAndPan="magnify" viewBox="0 0 183.75 125.999998" height="168" preserveAspectRatio="xMidYMid meet" version="1.0"><defs><g/><clipPath id="a555b41920"><path d="M 90 0.0859375 L 92 0.0859375 L 92 1 L 90 1 Z M 90 0.0859375 " clip-rule="nonzero"/></clipPath><clipPath id="5d53fc63ed"><path d="M 87 0.0859375 L 94 0.0859375 L 94 4 L 87 4 Z M 87 0.0859375 " clip-rule="nonzero"/></clipPath><clipPath id="121c10c103"><path d="M 100 25 L 122.726562 25 L 122.726562 34 L 100 34 Z M 100 25 " clip-rule="nonzero"/></clipPath><clipPath id="168ea85c99"><path d="M 90 55 L 92 55 L 92 57.007812 L 90 57.007812 Z M 90 55 " clip-rule="nonzero"/></clipPath><clipPath id="e9319031bf"><path d="M 60.5625 24 L 73 24 L 73 32 L 60.5625 32 Z M 60.5625 24 " clip-rule="nonzero"/></clipPath></defs><path fill="#ba5c12" d="M 87.945312 30.445312 L 88.746094 29.644531 L 89.296875 30.195312 L 88.496094 30.996094 Z M 87.945312 30.445312 " fill-opacity="1" fill-rule="nonzero"/><path fill="#ba5c12" d="M 87.898438 25.589844 L 88.449219 25.039062 L 89.25 25.84375 L 88.699219 26.394531 Z M 87.898438 25.589844 " fill-opacity="1" fill-rule="nonzero"/><path fill="#ba5c12" d="M 89.410156 28.957031 L 90.113281 28.257812 L 90.664062 28.808594 L 89.960938 29.507812 Z M 89.410156 28.957031 " fill-opacity="1" fill-rule="nonzero"/><path fill="#ba5c12" d="M 72.140625 9.71875 L 72.691406 9.167969 L 73.492188 9.96875 L 72.941406 10.519531 Z M 72.140625 9.71875 " fill-opacity="1" fill-rule="nonzero"/><path fill="#ba5c12" d="M 74.992188 12.574219 L 75.546875 12.023438 L 76.347656 12.824219 L 75.796875 13.375 Z M 74.992188 12.574219 " fill-opacity="1" fill-rule="nonzero"/><path fill="#ba5c12" d="M 76.429688 13.992188 L 76.984375 13.441406 L 77.785156 14.242188 L 77.234375 14.792969 Z M 76.429688 13.992188 " fill-opacity="1" fill-rule="nonzero"/><path fill="#ba5c12" d="M 92.640625 25.664062 L 93.441406 24.863281 L 93.996094 25.414062 L 93.191406 26.214844 Z M 92.640625 25.664062 " fill-opacity="1" fill-rule="nonzero"/><path fill="#ba5c12" d="M 73.558594 11.15625 L 74.109375 10.605469 L 74.910156 11.40625 L 74.359375 11.957031 Z M 73.558594 11.15625 " fill-opacity="1" fill-rule="nonzero"/><path fill="#ba5c12" d="M 77.847656 15.53125 L 78.398438 14.976562 L 79.199219 15.78125 L 78.648438 16.332031 Z M 77.847656 15.53125 " fill-opacity="1" fill-rule="nonzero"/><path fill="#ba5c12" d="M 82.140625 19.730469 L 82.691406 19.179688 L 83.492188 19.980469 L 82.941406 20.53125 Z M 82.140625 19.730469 " fill-opacity="1" fill-rule="nonzero"/><path fill="#ba5c12" d="M 79.335938 16.898438 L 79.886719 16.34375 L 80.6875 17.148438 L 80.136719 17.699219 Z M 79.335938 16.898438 " fill-opacity="1" fill-rule="nonzero"/><path fill="#ba5c12" d="M 80.703125 18.3125 L 81.253906 17.761719 L 82.054688 18.5625 L 81.503906 19.117188 Z M 80.703125 18.3125 " fill-opacity="1" fill-rule="nonzero"/><path fill="#ba5c12" d="M 90.8125 27.292969 L 89.890625 26.375 L 89.394531 26.941406 L 90.386719 27.933594 L 90.882812 27.367188 Z M 90.8125 27.292969 " fill-opacity="1" fill-rule="evenodd"/><path fill="#ba5c12" d="M 102.703125 15.546875 L 103.503906 14.742188 L 104.054688 15.292969 L 103.253906 16.097656 Z M 102.703125 15.546875 " fill-opacity="1" fill-rule="nonzero"/><path fill="#ba5c12" d="M 104.191406 14.179688 L 104.992188 13.378906 L 105.542969 13.929688 L 104.742188 14.730469 Z M 104.191406 14.179688 " fill-opacity="1" fill-rule="nonzero"/><path fill="#ba5c12" d="M 101.335938 17.03125 L 102.136719 16.230469 L 102.6875 16.78125 L 101.886719 17.582031 Z M 101.335938 17.03125 " fill-opacity="1" fill-rule="nonzero"/><path fill="#ba5c12" d="M 107.074219 11.324219 L 107.878906 10.523438 L 108.429688 11.074219 L 107.625 11.875 Z M 107.074219 11.324219 " fill-opacity="1" fill-rule="nonzero"/><path fill="#ba5c12" d="M 99.917969 18.46875 L 100.722656 17.667969 L 101.273438 18.21875 L 100.46875 19.019531 Z M 99.917969 18.46875 " fill-opacity="1" fill-rule="nonzero"/><path fill="#ba5c12" d="M 109.953125 8.421875 L 110.851562 7.519531 L 111.40625 8.070312 L 110.503906 8.972656 Z M 109.953125 8.421875 " fill-opacity="1" fill-rule="nonzero"/><path fill="#ba5c12" d="M 108.511719 9.835938 L 109.316406 9.035156 L 109.867188 9.585938 L 109.066406 10.386719 Z M 108.511719 9.835938 " fill-opacity="1" fill-rule="nonzero"/><path fill="#ba5c12" d="M 105.660156 12.691406 L 106.460938 11.890625 L 107.011719 12.441406 L 106.210938 13.242188 Z M 105.660156 12.691406 " fill-opacity="1" fill-rule="nonzero"/><path fill="#ba5c12" d="M 92.496094 30.195312 L 93.046875 29.644531 L 93.851562 30.449219 L 93.296875 31 Z M 92.496094 30.195312 " fill-opacity="1" fill-rule="nonzero"/><path fill="#ba5c12" d="M 91.519531 28.003906 L 90.953125 28.570312 L 91.945312 29.492188 L 92.441406 28.925781 L 91.664062 28.144531 Z M 91.519531 28.003906 " fill-opacity="1" fill-rule="evenodd"/><path fill="#ba5c12" d="M 91.222656 27.132812 L 92.074219 26.28125 L 92.628906 26.832031 L 91.777344 27.683594 Z M 91.222656 27.132812 " fill-opacity="1" fill-rule="nonzero"/><path fill="#ba5c12" d="M 97.015625 21.375 L 97.816406 20.570312 L 98.367188 21.125 L 97.566406 21.925781 Z M 97.015625 21.375 " fill-opacity="1" fill-rule="nonzero"/><path fill="#ba5c12" d="M 98.453125 19.886719 L 99.253906 19.085938 L 99.804688 19.636719 L 99.003906 20.4375 Z M 98.453125 19.886719 " fill-opacity="1" fill-rule="nonzero"/><path fill="#ba5c12" d="M 95.597656 22.738281 L 96.398438 21.9375 L 96.949219 22.488281 L 96.148438 23.292969 Z M 95.597656 22.738281 " fill-opacity="1" fill-rule="nonzero"/><path fill="#ba5c12" d="M 94.128906 24.226562 L 94.929688 23.425781 L 95.480469 23.976562 L 94.679688 24.777344 Z M 94.128906 24.226562 " fill-opacity="1" fill-rule="nonzero"/><path fill="#ba5c12" d="M 85.042969 22.636719 L 85.59375 22.085938 L 86.394531 22.886719 L 85.84375 23.4375 Z M 85.042969 22.636719 " fill-opacity="1" fill-rule="nonzero"/><path fill="#ba5c12" d="M 96.789062 34.398438 L 97.339844 33.847656 L 98.140625 34.648438 L 97.589844 35.199219 Z M 96.789062 34.398438 " fill-opacity="1" fill-rule="nonzero"/><path fill="#ba5c12" d="M 98.324219 35.886719 L 98.875 35.335938 L 99.679688 36.136719 L 99.128906 36.6875 Z M 98.324219 35.886719 " fill-opacity="1" fill-rule="nonzero"/><path fill="#ba5c12" d="M 95.421875 32.980469 L 95.972656 32.429688 L 96.773438 33.230469 L 96.222656 33.78125 Z M 95.421875 32.980469 " fill-opacity="1" fill-rule="nonzero"/><path fill="#ba5c12" d="M 86.527344 31.8125 L 87.328125 31.007812 L 87.878906 31.5625 L 87.078125 32.363281 Z M 86.527344 31.8125 " fill-opacity="1" fill-rule="nonzero"/><path fill="#ba5c12" d="M 86.480469 24.054688 L 87.03125 23.503906 L 87.832031 24.304688 L 87.28125 24.855469 Z M 86.480469 24.054688 " fill-opacity="1" fill-rule="nonzero"/><path fill="#ba5c12" d="M 101.128906 38.71875 L 101.679688 38.167969 L 102.480469 38.972656 L 101.929688 39.523438 Z M 101.128906 38.71875 " fill-opacity="1" fill-rule="nonzero"/><path fill="#ba5c12" d="M 93.984375 31.5625 L 94.535156 31.011719 L 95.335938 31.816406 L 94.785156 32.367188 Z M 93.984375 31.5625 " fill-opacity="1" fill-rule="nonzero"/><path fill="#ba5c12" d="M 104.035156 41.625 L 104.585938 41.074219 L 105.386719 41.875 L 104.835938 42.425781 Z M 104.035156 41.625 " fill-opacity="1" fill-rule="nonzero"/><path fill="#ba5c12" d="M 108.375 45.949219 L 108.925781 45.398438 L 109.726562 46.199219 L 109.175781 46.75 Z M 108.375 45.949219 " fill-opacity="1" fill-rule="nonzero"/><path fill="#ba5c12" d="M 106.835938 44.460938 L 107.386719 43.910156 L 108.191406 44.710938 L 107.640625 45.261719 Z M 106.835938 44.460938 " fill-opacity="1" fill-rule="nonzero"/><path fill="#ba5c12" d="M 109.792969 47.355469 L 110.34375 46.804688 L 111.445312 47.90625 L 110.894531 48.460938 Z M 109.792969 47.355469 " fill-opacity="1" fill-rule="nonzero"/><path fill="#ba5c12" d="M 105.46875 43.042969 L 106.023438 42.492188 L 106.824219 43.292969 L 106.273438 43.84375 Z M 105.46875 43.042969 " fill-opacity="1" fill-rule="nonzero"/><path fill="#ba5c12" d="M 102.617188 40.257812 L 103.167969 39.707031 L 103.96875 40.507812 L 103.417969 41.058594 Z M 102.617188 40.257812 " fill-opacity="1" fill-rule="nonzero"/><path fill="#ba5c12" d="M 85.058594 33.296875 L 85.863281 32.496094 L 86.414062 33.046875 L 85.609375 33.851562 Z M 85.058594 33.296875 " fill-opacity="1" fill-rule="nonzero"/><path fill="#ba5c12" d="M 99.691406 37.304688 L 100.242188 36.753906 L 101.046875 37.554688 L 100.492188 38.105469 Z M 99.691406 37.304688 " fill-opacity="1" fill-rule="nonzero"/><path fill="#ba5c12" d="M 83.570312 34.734375 L 84.375 33.933594 L 84.925781 34.484375 L 84.121094 35.289062 Z M 83.570312 34.734375 " fill-opacity="1" fill-rule="nonzero"/><path fill="#ba5c12" d="M 77.882812 40.492188 L 78.683594 39.691406 L 79.234375 40.242188 L 78.433594 41.042969 Z M 77.882812 40.492188 " fill-opacity="1" fill-rule="nonzero"/><path fill="#ba5c12" d="M 80.789062 37.589844 L 81.589844 36.789062 L 82.140625 37.339844 L 81.339844 38.140625 Z M 80.789062 37.589844 " fill-opacity="1" fill-rule="nonzero"/><path fill="#ba5c12" d="M 79.320312 39.007812 L 80.121094 38.203125 L 80.671875 38.753906 L 79.871094 39.558594 Z M 79.320312 39.007812 " fill-opacity="1" fill-rule="nonzero"/><path fill="#ba5c12" d="M 74.996094 43.347656 L 75.800781 42.546875 L 76.351562 43.097656 L 75.550781 43.898438 Z M 74.996094 43.347656 " fill-opacity="1" fill-rule="nonzero"/><path fill="#ba5c12" d="M 70.433594 47.917969 L 71.484375 46.867188 L 72.035156 47.417969 L 70.984375 48.46875 Z M 70.433594 47.917969 " fill-opacity="1" fill-rule="nonzero"/><path fill="#ba5c12" d="M 70.421875 8.011719 L 70.972656 7.457031 L 72.027344 8.511719 L 71.476562 9.0625 Z M 70.421875 8.011719 " fill-opacity="1" fill-rule="nonzero"/><path fill="#ba5c12" d="M 73.511719 44.785156 L 74.3125 43.984375 L 74.863281 44.535156 L 74.0625 45.335938 Z M 73.511719 44.785156 " fill-opacity="1" fill-rule="nonzero"/><path fill="#ba5c12" d="M 72.144531 46.203125 L 72.945312 45.398438 L 73.496094 45.949219 L 72.695312 46.753906 Z M 72.144531 46.203125 " fill-opacity="1" fill-rule="nonzero"/><path fill="#ba5c12" d="M 76.464844 41.929688 L 77.265625 41.128906 L 77.816406 41.679688 L 77.015625 42.480469 Z M 76.464844 41.929688 " fill-opacity="1" fill-rule="nonzero"/><path fill="#ba5c12" d="M 83.675781 21.21875 L 84.226562 20.667969 L 85.027344 21.46875 L 84.476562 22.019531 Z M 83.675781 21.21875 " fill-opacity="1" fill-rule="nonzero"/><path fill="#ba5c12" d="M 82.203125 36.152344 L 83.007812 35.351562 L 83.558594 35.902344 L 82.753906 36.703125 Z M 82.203125 36.152344 " fill-opacity="1" fill-rule="nonzero"/><g clip-path="url(#a555b41920)"><path fill="#ba5c12" d="M 90.601562 0.511719 L 91.308594 0.511719 C 91.167969 0.0859375 90.742188 0.0859375 90.601562 0.511719 Z M 90.601562 0.511719 " fill-opacity="1" fill-rule="evenodd"/></g><path fill="#ba5c12" d="M 87.90625 9.933594 L 92.726562 5.046875 L 87.980469 5.046875 Z M 87.90625 9.933594 " fill-opacity="1" fill-rule="evenodd"/><path fill="#ba5c12" d="M 93.929688 11.847656 L 89.183594 16.667969 L 93.929688 16.667969 Z M 93.929688 11.847656 " fill-opacity="1" fill-rule="evenodd"/><path fill="#ba5c12" d="M 93.929688 9.722656 L 93.929688 6.039062 L 87.90625 12.058594 L 87.90625 15.675781 Z M 93.929688 9.722656 " fill-opacity="1" fill-rule="evenodd"/><path fill="#ba5c12" d="M 87.535156 4.410156 L 87.535156 4.054688 L 94.335938 4.066406 L 94.335938 4.421875 Z M 87.535156 4.410156 " fill-opacity="1" fill-rule="nonzero"/><g clip-path="url(#5d53fc63ed)"><path fill="#ba5c12" d="M 90.953125 0.722656 C 89.324219 0.722656 87.980469 2.070312 87.980469 3.699219 L 93.929688 3.699219 C 93.929688 2.070312 92.585938 0.722656 90.953125 0.722656 Z M 91.027344 1.289062 C 91.59375 1.078125 93.007812 1.574219 93.152344 3.0625 C 92.867188 2.425781 92.089844 1.644531 91.027344 1.289062 Z M 91.027344 1.289062 " fill-opacity="1" fill-rule="evenodd"/></g><path fill="#ba5c12" d="M 87.535156 17.824219 L 87.535156 17.46875 L 94.335938 17.480469 L 94.335938 17.835938 Z M 87.535156 17.824219 " fill-opacity="1" fill-rule="nonzero"/><path fill="#ba5c12" d="M 93.859375 18.082031 L 87.90625 18.082031 C 87.90625 19.714844 89.253906 21.058594 90.882812 21.058594 C 92.511719 21.058594 93.859375 19.714844 93.859375 18.082031 Z M 91.027344 20.492188 C 92.089844 20.136719 92.867188 19.359375 93.152344 18.722656 C 93.007812 20.210938 91.59375 20.707031 91.027344 20.492188 Z M 91.027344 20.492188 " fill-opacity="1" fill-rule="evenodd"/><g clip-path="url(#121c10c103)"><path fill="#ba5c12" d="M 119.367188 25.878906 C 118.375 25.878906 117.457031 25.878906 116.464844 25.878906 L 113.558594 25.878906 C 112.566406 25.878906 111.644531 25.808594 110.652344 25.878906 C 110.371094 26.304688 110.15625 27.082031 109.875 27.292969 L 107.109375 28.5 C 106.683594 28.710938 106.117188 28.996094 105.765625 29.066406 C 105.269531 27.578125 102.644531 27.082031 101.371094 28.710938 C 100.09375 30.339844 101.867188 30.765625 101.15625 32.253906 C 100.734375 33.175781 100.519531 32.75 100.734375 33.460938 L 100.875 33.601562 C 101.300781 33.175781 101.652344 32.609375 102.078125 32.253906 C 102.503906 31.902344 103 32.113281 103.425781 32.042969 C 103.851562 32.042969 104.277344 31.902344 104.773438 31.617188 C 105.339844 31.191406 105.550781 30.484375 105.976562 30.269531 L 109.945312 28.429688 C 110.652344 28.144531 111.289062 27.933594 112 27.933594 L 120.855469 26.726562 C 121.707031 26.585938 121.496094 26.726562 122.273438 26.230469 C 121.351562 25.949219 120.289062 26.089844 119.367188 26.019531 Z M 104.488281 30.910156 C 102.574219 32.183594 100.378906 29.988281 102.292969 28.640625 C 102.929688 28.214844 103.921875 28.074219 104.628906 28.640625 C 105.480469 29.277344 105.410156 30.339844 104.488281 30.980469 Z M 111.433594 27.011719 C 111.289062 27.152344 111.078125 27.222656 110.867188 27.011719 C 110.722656 26.871094 110.652344 26.65625 110.867188 26.445312 C 111.007812 26.304688 111.21875 26.230469 111.433594 26.445312 C 111.574219 26.585938 111.644531 26.800781 111.433594 27.011719 Z M 111.433594 27.011719 " fill-opacity="1" fill-rule="evenodd"/></g><path fill="#ba5c12" d="M 102.789062 27.152344 C 103.285156 27.71875 103.496094 27.152344 103.78125 26.941406 C 103.921875 26.800781 104.417969 26.726562 104.773438 26.445312 C 105.195312 26.160156 105.410156 25.878906 105.621094 25.453125 L 109.519531 26.871094 C 109.730469 26.585938 109.945312 26.019531 109.945312 25.734375 C 104.203125 24.175781 106.332031 24.742188 105.339844 23.539062 C 104.558594 22.546875 103.214844 22.335938 102.222656 22.832031 C 100.519531 23.609375 100.238281 25.734375 101.9375 26.65625 C 102.078125 26.726562 102.292969 26.800781 102.433594 26.871094 C 102.789062 27.082031 102.433594 26.941406 102.71875 27.222656 Z M 102.363281 25.949219 C 100.378906 24.886719 102.222656 22.265625 104.417969 23.398438 C 105.269531 23.824219 105.410156 24.886719 104.773438 25.59375 C 104.132812 26.230469 103.140625 26.304688 102.433594 25.949219 Z M 102.363281 25.949219 " fill-opacity="1" fill-rule="evenodd"/><path fill="#ba5c12" d="M 90.457031 46.992188 L 91.097656 46.992188 L 91.097656 47.632812 L 90.457031 47.632812 Z M 90.457031 46.992188 " fill-opacity="1" fill-rule="nonzero"/><path fill="#ba5c12" d="M 93.929688 39.695312 L 87.980469 39.695312 C 87.484375 39.695312 87.128906 40.121094 87.128906 40.546875 L 87.128906 45.292969 C 87.128906 45.71875 87.410156 46.070312 87.835938 46.144531 L 87.835938 52.308594 C 87.835938 54.007812 89.253906 55.355469 90.882812 55.355469 L 91.097656 55.355469 C 92.796875 55.355469 94.144531 54.007812 94.144531 52.308594 L 94.144531 46.144531 C 94.496094 46.070312 94.851562 45.71875 94.851562 45.292969 L 94.851562 40.546875 C 94.851562 40.050781 94.425781 39.695312 94 39.695312 Z M 90.316406 48.765625 L 90.316406 46.78125 C 90.316406 46.78125 91.238281 46.78125 91.238281 46.78125 L 91.238281 48.765625 C 91.238281 48.765625 90.316406 48.765625 90.316406 48.765625 Z M 92.65625 41.75 L 92.65625 42.953125 C 92.65625 42.953125 89.324219 42.953125 89.324219 42.953125 L 89.324219 41.75 C 89.324219 41.75 88.121094 41.75 88.121094 41.75 L 88.121094 40.546875 C 88.121094 40.546875 93.789062 40.546875 93.789062 40.546875 L 93.789062 41.75 C 93.789062 41.75 92.585938 41.75 92.585938 41.75 Z M 92.65625 41.75 " fill-opacity="1" fill-rule="evenodd"/><path fill="#ba5c12" d="M 87.90625 39.410156 L 94.144531 39.410156 C 94.144531 39.410156 94.144531 37.285156 94.144531 37.285156 C 94.144531 37.144531 94.074219 36.929688 93.929688 36.859375 L 93.929688 38.5625 C 93.929688 38.5625 93.789062 38.5625 93.789062 38.5625 L 93.789062 36.789062 C 93.789062 36.789062 93.648438 36.789062 93.578125 36.789062 L 93.578125 38.417969 C 93.578125 38.417969 93.578125 38.632812 93.578125 38.632812 L 93.152344 38.632812 C 93.152344 38.632812 93.152344 38.417969 93.152344 38.417969 L 93.152344 36.789062 C 93.152344 36.789062 92.9375 36.789062 92.9375 36.789062 L 92.9375 38.417969 C 92.9375 38.417969 92.9375 38.632812 92.9375 38.632812 L 92.511719 38.632812 C 92.511719 38.632812 92.511719 38.417969 92.511719 38.417969 L 92.511719 36.789062 C 92.511719 36.789062 92.300781 36.789062 92.300781 36.789062 L 92.300781 38.417969 C 92.300781 38.417969 92.300781 38.632812 92.300781 38.632812 L 91.875 38.632812 C 91.875 38.632812 91.875 38.417969 91.875 38.417969 L 91.875 36.789062 C 91.875 36.789062 91.664062 36.789062 91.664062 36.789062 L 91.664062 38.417969 C 91.664062 38.417969 91.664062 38.632812 91.664062 38.632812 L 91.238281 38.632812 C 91.238281 38.632812 91.238281 38.417969 91.238281 38.417969 L 91.238281 36.789062 C 91.238281 36.789062 91.027344 36.789062 91.027344 36.789062 L 91.027344 38.417969 C 91.027344 38.417969 91.027344 38.632812 91.027344 38.632812 L 90.601562 38.632812 C 90.601562 38.632812 90.601562 38.417969 90.601562 38.417969 L 90.601562 36.789062 C 90.601562 36.789062 90.386719 36.789062 90.386719 36.789062 L 90.386719 38.417969 C 90.386719 38.417969 90.386719 38.632812 90.386719 38.632812 L 89.960938 38.632812 C 89.960938 38.632812 89.960938 38.417969 89.960938 38.417969 L 89.960938 36.789062 C 89.960938 36.789062 89.75 36.789062 89.75 36.789062 L 89.75 38.417969 C 89.75 38.417969 89.75 38.632812 89.75 38.632812 L 89.324219 38.632812 C 89.324219 38.632812 89.324219 38.417969 89.324219 38.417969 L 89.324219 36.789062 C 89.324219 36.789062 89.113281 36.789062 89.113281 36.789062 L 89.113281 38.417969 C 89.113281 38.417969 89.113281 38.632812 89.113281 38.632812 L 88.6875 38.632812 C 88.6875 38.632812 88.6875 38.417969 88.6875 38.417969 L 88.6875 36.789062 C 88.6875 36.789062 88.476562 36.789062 88.476562 36.789062 L 88.476562 38.417969 C 88.476562 38.417969 88.476562 38.632812 88.476562 38.632812 L 88.050781 38.632812 C 88.050781 38.632812 88.050781 38.417969 88.050781 38.417969 L 88.050781 36.789062 C 88.050781 36.789062 87.980469 36.789062 87.90625 36.789062 L 87.90625 38.5625 C 87.90625 38.5625 87.765625 38.5625 87.765625 38.5625 L 87.765625 36.859375 C 87.625 36.929688 87.554688 37.144531 87.554688 37.355469 L 87.554688 39.480469 Z M 87.90625 39.410156 " fill-opacity="1" fill-rule="evenodd"/><g clip-path="url(#168ea85c99)"><path fill="#ba5c12" d="M 90.273438 55.65625 L 91.832031 55.65625 L 91.832031 57.070312 L 90.273438 57.074219 Z M 90.273438 55.65625 " fill-opacity="1" fill-rule="nonzero"/></g><g clip-path="url(#e9319031bf)"><path fill="#ba5c12" d="M 66.082031 31.050781 C 69.273438 31.050781 71.257812 30.339844 71.894531 28.003906 C 72.53125 25.878906 71.398438 24.320312 69.273438 25.167969 C 67.785156 25.808594 66.507812 27.71875 64.738281 27.71875 C 62.824219 27.71875 61.621094 26.726562 60.839844 25.453125 C 60.769531 27.648438 61.832031 28.925781 63.957031 29.351562 L 66.15625 29.136719 L 63.53125 29.847656 L 63.320312 29.847656 C 64.3125 30.414062 65.375 30.625 66.652344 30.554688 L 67.925781 30.199219 L 66.367188 30.910156 Z M 70.40625 25.664062 L 70.546875 25.664062 C 70.546875 25.664062 70.546875 25.949219 70.546875 25.949219 L 70.40625 25.949219 C 70.121094 25.949219 69.839844 26.019531 69.554688 26.160156 C 69.203125 26.375 68.917969 26.585938 68.632812 26.871094 C 68.632812 26.871094 68.492188 26.941406 68.421875 27.011719 L 68.28125 26.726562 C 68.847656 26.230469 69.414062 25.664062 70.265625 25.59375 Z M 67.640625 27.578125 L 67.5 27.578125 C 67.5 27.578125 67.359375 27.367188 67.359375 27.367188 L 67.5 27.367188 C 67.570312 27.292969 67.714844 27.222656 67.785156 27.152344 L 67.925781 27.4375 C 67.855469 27.4375 67.714844 27.578125 67.640625 27.578125 Z M 67.640625 27.578125 " fill-opacity="1" fill-rule="evenodd"/></g><path fill="#ba5c12" d="M 78.058594 31.050781 L 77.773438 30.910156 L 76.214844 30.199219 L 77.492188 30.554688 C 78.765625 30.695312 79.828125 30.414062 80.820312 29.917969 L 80.609375 29.917969 C 80.609375 29.847656 77.988281 29.136719 77.988281 29.136719 L 80.183594 29.351562 C 82.308594 28.925781 83.445312 27.648438 83.300781 25.453125 C 82.453125 26.726562 81.316406 27.648438 79.40625 27.71875 C 77.632812 27.71875 76.359375 25.808594 74.871094 25.167969 C 72.746094 24.246094 71.609375 25.878906 72.25 28.003906 C 72.886719 30.339844 74.941406 31.050781 78.058594 31.050781 Z M 76.289062 27.152344 C 76.359375 27.152344 76.5 27.292969 76.570312 27.292969 L 76.710938 27.292969 C 76.710938 27.292969 76.570312 27.578125 76.570312 27.578125 L 76.429688 27.578125 C 76.359375 27.507812 76.214844 27.4375 76.144531 27.367188 L 76.289062 27.082031 Z M 73.59375 25.664062 L 73.734375 25.664062 C 74.65625 25.664062 75.152344 26.304688 75.71875 26.800781 L 75.578125 27.082031 C 75.578125 27.082031 75.4375 27.011719 75.367188 26.941406 C 75.082031 26.65625 74.800781 26.445312 74.445312 26.230469 C 74.160156 26.089844 73.949219 26.019531 73.59375 26.019531 L 73.453125 26.019531 C 73.453125 26.019531 73.453125 25.734375 73.453125 25.734375 Z M 73.59375 25.664062 " fill-opacity="1" fill-rule="evenodd"/><g fill="#ba5c12" fill-opacity="1"><g transform="translate(36.941847, 117.878666)"><g><path d="M 4.578125 0 C 6.039062 0 6.890625 -0.875 6.890625 -2.15625 C 6.890625 -3.117188 6.183594 -3.992188 5.332031 -4.121094 C 6.0625 -4.277344 6.734375 -4.949219 6.734375 -5.957031 C 6.734375 -7.152344 5.882812 -7.992188 4.492188 -7.992188 L 0.933594 -7.992188 L 0.933594 0 Z M 1.929688 -7.105469 L 4.324219 -7.105469 C 5.226562 -7.105469 5.703125 -6.53125 5.703125 -5.8125 C 5.703125 -5.082031 5.226562 -4.53125 4.324219 -4.53125 L 1.929688 -4.53125 Z M 1.929688 -3.644531 L 4.375 -3.644531 C 5.355469 -3.644531 5.859375 -2.996094 5.859375 -2.265625 C 5.859375 -1.414062 5.308594 -0.886719 4.375 -0.886719 L 1.929688 -0.886719 Z M 1.929688 -3.644531 "/></g></g></g><g fill="#ba5c12" fill-opacity="1"><g transform="translate(47.475534, 117.878666)"><g><path d="M 7.777344 0 L 4.554688 -7.992188 L 3.320312 -7.992188 L 0.109375 0 L 1.210938 0 L 1.917969 -1.773438 L 5.96875 -1.773438 L 6.675781 0 Z M 5.667969 -2.660156 L 2.203125 -2.660156 L 3.941406 -7.105469 Z M 5.667969 -2.660156 "/></g></g></g><g fill="#ba5c12" fill-opacity="1"><g transform="translate(58.356741, 117.878666)"><g><path d="M 6.734375 0 L 4.578125 -3.257812 C 5.667969 -3.355469 6.652344 -4.144531 6.652344 -5.585938 C 6.652344 -7.058594 5.609375 -7.992188 4.144531 -7.992188 L 0.933594 -7.992188 L 0.933594 0 L 1.929688 0 L 1.929688 -3.175781 L 3.523438 -3.175781 L 5.558594 0 Z M 5.621094 -5.585938 C 5.621094 -4.6875 4.972656 -4.050781 4.027344 -4.050781 L 1.929688 -4.050781 L 1.929688 -7.105469 L 4.027344 -7.105469 C 4.972656 -7.105469 5.621094 -6.484375 5.621094 -5.585938 Z M 5.621094 -5.585938 "/></g></g></g><g fill="#ba5c12" fill-opacity="1"><g transform="translate(68.638772, 117.878666)"><g><path d="M 4.578125 0 C 6.039062 0 6.890625 -0.875 6.890625 -2.15625 C 6.890625 -3.117188 6.183594 -3.992188 5.332031 -4.121094 C 6.0625 -4.277344 6.734375 -4.949219 6.734375 -5.957031 C 6.734375 -7.152344 5.882812 -7.992188 4.492188 -7.992188 L 0.933594 -7.992188 L 0.933594 0 Z M 1.929688 -7.105469 L 4.324219 -7.105469 C 5.226562 -7.105469 5.703125 -6.53125 5.703125 -5.8125 C 5.703125 -5.082031 5.226562 -4.53125 4.324219 -4.53125 L 1.929688 -4.53125 Z M 1.929688 -3.644531 L 4.375 -3.644531 C 5.355469 -3.644531 5.859375 -2.996094 5.859375 -2.265625 C 5.859375 -1.414062 5.308594 -0.886719 4.375 -0.886719 L 1.929688 -0.886719 Z M 1.929688 -3.644531 "/></g></g></g><g fill="#ba5c12" fill-opacity="1"><g transform="translate(79.172459, 117.878666)"><g><path d="M 6.171875 0 L 6.171875 -0.886719 L 1.929688 -0.886719 L 1.929688 -3.644531 L 6.085938 -3.644531 L 6.085938 -4.53125 L 1.929688 -4.53125 L 1.929688 -7.105469 L 6.171875 -7.105469 L 6.171875 -7.992188 L 0.933594 -7.992188 L 0.933594 0 Z M 6.171875 0 "/></g></g></g><g fill="#ba5c12" fill-opacity="1"><g transform="translate(88.98712, 117.878666)"><g><path d="M 6.734375 0 L 4.578125 -3.257812 C 5.667969 -3.355469 6.652344 -4.144531 6.652344 -5.585938 C 6.652344 -7.058594 5.609375 -7.992188 4.144531 -7.992188 L 0.933594 -7.992188 L 0.933594 0 L 1.929688 0 L 1.929688 -3.175781 L 3.523438 -3.175781 L 5.558594 0 Z M 5.621094 -5.585938 C 5.621094 -4.6875 4.972656 -4.050781 4.027344 -4.050781 L 1.929688 -4.050781 L 1.929688 -7.105469 L 4.027344 -7.105469 C 4.972656 -7.105469 5.621094 -6.484375 5.621094 -5.585938 Z M 5.621094 -5.585938 "/></g></g></g><g fill="#ba5c12" fill-opacity="1"><g transform="translate(99.269151, 117.878666)"><g/></g></g><g fill="#ba5c12" fill-opacity="1"><g transform="translate(105.356872, 117.878666)"><g><path d="M 0.457031 -1.125 C 1.113281 -0.382812 2.132812 0.144531 3.523438 0.144531 C 5.679688 0.144531 6.472656 -1.042969 6.472656 -2.203125 C 6.472656 -3.882812 4.984375 -4.289062 3.679688 -4.636719 C 2.660156 -4.914062 1.738281 -5.152344 1.738281 -5.957031 C 1.738281 -6.710938 2.421875 -7.226562 3.378906 -7.226562 C 4.253906 -7.226562 5.09375 -6.925781 5.691406 -6.265625 L 6.292969 -7 C 5.621094 -7.707031 4.671875 -8.113281 3.453125 -8.113281 C 1.882812 -8.113281 0.707031 -7.214844 0.707031 -5.894531 C 0.707031 -4.324219 2.132812 -3.964844 3.414062 -3.632812 C 4.46875 -3.34375 5.441406 -3.078125 5.441406 -2.121094 C 5.441406 -1.511719 4.984375 -0.742188 3.558594 -0.742188 C 2.433594 -0.742188 1.570312 -1.292969 1.042969 -1.882812 Z M 0.457031 -1.125 "/></g></g></g><g fill="#ba5c12" fill-opacity="1"><g transform="translate(115.375258, 117.878666)"><g><path d="M 7.597656 0 L 7.597656 -7.992188 L 6.601562 -7.992188 L 6.601562 -4.554688 L 1.929688 -4.554688 L 1.929688 -7.992188 L 0.933594 -7.992188 L 0.933594 0 L 1.929688 0 L 1.929688 -3.667969 L 6.601562 -3.667969 L 6.601562 0 Z M 7.597656 0 "/></g></g></g><g fill="#ba5c12" fill-opacity="1"><g transform="translate(126.903594, 117.878666)"><g><path d="M 0.609375 -3.992188 C 0.609375 -1.628906 2.203125 0.144531 4.578125 0.144531 C 6.9375 0.144531 8.542969 -1.628906 8.542969 -3.992188 C 8.542969 -6.351562 6.9375 -8.125 4.578125 -8.125 C 2.203125 -8.125 0.609375 -6.351562 0.609375 -3.992188 Z M 7.515625 -3.992188 C 7.515625 -2.132812 6.363281 -0.742188 4.578125 -0.742188 C 2.78125 -0.742188 1.640625 -2.132812 1.640625 -3.992188 C 1.640625 -5.859375 2.78125 -7.238281 4.578125 -7.238281 C 6.363281 -7.238281 7.515625 -5.859375 7.515625 -3.992188 Z M 7.515625 -3.992188 "/></g></g></g><g fill="#ba5c12" fill-opacity="1"><g transform="translate(139.067061, 117.878666)"><g><path d="M 1.929688 0 L 1.929688 -3.175781 L 4.144531 -3.175781 C 5.726562 -3.175781 6.652344 -4.277344 6.652344 -5.585938 C 6.652344 -6.890625 5.753906 -7.992188 4.144531 -7.992188 L 0.933594 -7.992188 L 0.933594 0 Z M 5.621094 -5.585938 C 5.621094 -4.6875 4.972656 -4.0625 4.027344 -4.0625 L 1.929688 -4.0625 L 1.929688 -7.105469 L 4.027344 -7.105469 C 4.972656 -7.105469 5.621094 -6.484375 5.621094 -5.585938 Z M 5.621094 -5.585938 "/></g></g></g><g fill="#ccc5b9" fill-opacity="1"><g transform="translate(12.144819, 97.805991)"><g><path d="M 2.09375 -0.671875 L 2.09375 -32.875 C 2.09375 -33.320312 2.316406 -33.546875 2.765625 -33.546875 L 12.828125 -33.546875 C 14.816406 -33.546875 16.320312 -33.03125 17.34375 -32 C 18.363281 -30.96875 18.875 -29.457031 18.875 -27.46875 L 18.875 -6.03125 C 18.875 -4.082031 18.363281 -2.585938 17.34375 -1.546875 C 16.320312 -0.515625 14.816406 0 12.828125 0 L 2.765625 0 C 2.316406 0 2.09375 -0.222656 2.09375 -0.671875 Z M 7.796875 -5.53125 L 11.65625 -5.53125 C 12.78125 -5.53125 13.34375 -6.09375 13.34375 -7.21875 L 13.34375 -26.296875 C 13.34375 -27.441406 12.78125 -28.015625 11.65625 -28.015625 L 7.796875 -28.015625 Z M 7.796875 -5.53125 "/></g></g><g transform="translate(33.116286, 97.805991)"><g><path d="M 18.828125 -32.875 L 18.828125 -28.6875 C 18.828125 -28.207031 18.601562 -27.96875 18.15625 -27.96875 L 7.671875 -27.96875 L 7.671875 -19.578125 L 15.6875 -19.578125 C 16.132812 -19.578125 16.359375 -19.34375 16.359375 -18.875 L 16.359375 -14.71875 C 16.359375 -14.238281 16.132812 -14 15.6875 -14 L 7.671875 -14 L 7.671875 -5.53125 L 18.15625 -5.53125 C 18.601562 -5.53125 18.828125 -5.304688 18.828125 -4.859375 L 18.828125 -0.671875 C 18.828125 -0.222656 18.601562 0 18.15625 0 L 2.71875 0 C 2.300781 0 2.09375 -0.222656 2.09375 -0.671875 L 2.09375 -32.875 C 2.09375 -33.320312 2.300781 -33.546875 2.71875 -33.546875 L 18.15625 -33.546875 C 18.601562 -33.546875 18.828125 -33.320312 18.828125 -32.875 Z M 18.828125 -32.875 "/></g></g><g transform="translate(54.045809, 97.805991)"><g/></g><g transform="translate(64.531543, 97.805991)"><g><path d="M 20.046875 0 L 15.59375 0 C 15.125 0 14.804688 -0.207031 14.640625 -0.625 L 9.359375 -13.078125 L 7.796875 -10.109375 L 7.796875 -0.84375 C 7.796875 -0.28125 7.519531 0 6.96875 0 L 2.9375 0 C 2.375 0 2.09375 -0.28125 2.09375 -0.84375 L 2.09375 -32.71875 C 2.09375 -33.269531 2.375 -33.546875 2.9375 -33.546875 L 6.96875 -33.546875 C 7.519531 -33.546875 7.796875 -33.269531 7.796875 -32.71875 L 7.796875 -19.703125 L 14.265625 -32.921875 C 14.484375 -33.335938 14.800781 -33.546875 15.21875 -33.546875 L 19.625 -33.546875 C 19.9375 -33.546875 20.144531 -33.453125 20.25 -33.265625 C 20.363281 -33.085938 20.351562 -32.847656 20.21875 -32.546875 L 13.078125 -17.90625 L 20.671875 -0.96875 C 20.816406 -0.6875 20.832031 -0.453125 20.71875 -0.265625 C 20.601562 -0.0859375 20.378906 0 20.046875 0 Z M 20.046875 0 "/></g></g></g><g fill="#ccc5b9" fill-opacity="1"><g transform="translate(87.012948, 97.805991)"><g><path d="M 14.171875 -33.546875 L 18.03125 -33.546875 C 18.257812 -33.546875 18.457031 -33.460938 18.625 -33.296875 C 18.789062 -33.128906 18.875 -32.9375 18.875 -32.71875 L 18.875 -6.03125 C 18.875 -4.082031 18.363281 -2.585938 17.34375 -1.546875 C 16.320312 -0.515625 14.816406 0 12.828125 0 L 8.140625 0 C 6.179688 0 4.679688 -0.515625 3.640625 -1.546875 C 2.609375 -2.585938 2.09375 -4.082031 2.09375 -6.03125 L 2.09375 -32.71875 C 2.09375 -32.9375 2.175781 -33.128906 2.34375 -33.296875 C 2.507812 -33.460938 2.707031 -33.546875 2.9375 -33.546875 L 6.96875 -33.546875 C 7.1875 -33.546875 7.378906 -33.460938 7.546875 -33.296875 C 7.710938 -33.128906 7.796875 -32.9375 7.796875 -32.71875 L 7.796875 -7.21875 C 7.796875 -6.09375 8.359375 -5.53125 9.484375 -5.53125 L 11.65625 -5.53125 C 12.78125 -5.53125 13.34375 -6.09375 13.34375 -7.21875 L 13.34375 -32.71875 C 13.34375 -32.9375 13.425781 -33.128906 13.59375 -33.296875 C 13.757812 -33.460938 13.953125 -33.546875 14.171875 -33.546875 Z M 14.171875 -33.546875 "/></g></g><g transform="translate(107.984414, 97.805991)"><g><path d="M 18.90625 -27.515625 L 18.90625 -19.796875 C 18.90625 -19.015625 18.65625 -18.359375 18.15625 -17.828125 C 17.65625 -17.296875 17.023438 -16.957031 16.265625 -16.8125 L 16.265625 -16.734375 C 17.023438 -16.617188 17.65625 -16.289062 18.15625 -15.75 C 18.65625 -15.207031 18.90625 -14.539062 18.90625 -13.75 L 18.90625 -6.03125 C 18.90625 -4.082031 18.390625 -2.585938 17.359375 -1.546875 C 16.328125 -0.515625 14.816406 0 12.828125 0 L 2.765625 0 C 2.316406 0 2.09375 -0.222656 2.09375 -0.671875 L 2.09375 -32.875 C 2.09375 -33.320312 2.316406 -33.546875 2.765625 -33.546875 L 12.828125 -33.546875 C 14.816406 -33.546875 16.328125 -33.035156 17.359375 -32.015625 C 18.390625 -30.992188 18.90625 -29.492188 18.90625 -27.515625 Z M 13.34375 -21.171875 L 13.34375 -26.34375 C 13.34375 -27.457031 12.78125 -28.015625 11.65625 -28.015625 L 7.84375 -28.015625 L 7.84375 -19.546875 L 11.65625 -19.546875 C 12.78125 -19.546875 13.34375 -20.085938 13.34375 -21.171875 Z M 13.34375 -7.21875 L 13.34375 -12.328125 C 13.34375 -13.441406 12.78125 -14 11.65625 -14 L 7.84375 -14 L 7.84375 -5.53125 L 11.65625 -5.53125 C 12.78125 -5.53125 13.34375 -6.09375 13.34375 -7.21875 Z M 13.34375 -7.21875 "/></g></g><g transform="translate(128.997824, 97.805991)"><g><path d="M 18.828125 -32.875 L 18.828125 -28.6875 C 18.828125 -28.207031 18.601562 -27.96875 18.15625 -27.96875 L 7.671875 -27.96875 L 7.671875 -19.578125 L 15.6875 -19.578125 C 16.132812 -19.578125 16.359375 -19.34375 16.359375 -18.875 L 16.359375 -14.71875 C 16.359375 -14.238281 16.132812 -14 15.6875 -14 L 7.671875 -14 L 7.671875 -5.53125 L 18.15625 -5.53125 C 18.601562 -5.53125 18.828125 -5.304688 18.828125 -4.859375 L 18.828125 -0.671875 C 18.828125 -0.222656 18.601562 0 18.15625 0 L 2.71875 0 C 2.300781 0 2.09375 -0.222656 2.09375 -0.671875 L 2.09375 -32.875 C 2.09375 -33.320312 2.300781 -33.546875 2.71875 -33.546875 L 18.15625 -33.546875 C 18.601562 -33.546875 18.828125 -33.320312 18.828125 -32.875 Z M 18.828125 -32.875 "/></g></g><g transform="translate(149.927347, 97.805991)"><g><path d="M 8.140625 -33.546875 L 12.828125 -33.546875 C 14.816406 -33.546875 16.320312 -33.035156 17.34375 -32.015625 C 18.363281 -30.992188 18.875 -29.492188 18.875 -27.515625 L 18.875 -23.0625 C 18.875 -22.613281 18.648438 -22.390625 18.203125 -22.390625 L 13.84375 -22.390625 C 13.394531 -22.390625 13.171875 -22.613281 13.171875 -23.0625 L 13.171875 -26.34375 C 13.171875 -27.457031 12.609375 -28.015625 11.484375 -28.015625 L 9.484375 -28.015625 C 8.359375 -28.015625 7.796875 -27.457031 7.796875 -26.34375 L 7.796875 -20.546875 L 17.78125 -17.28125 C 18.507812 -16.96875 18.875 -16.453125 18.875 -15.734375 L 18.875 -6.03125 C 18.875 -4.082031 18.363281 -2.585938 17.34375 -1.546875 C 16.320312 -0.515625 14.816406 0 12.828125 0 L 8.140625 0 C 6.179688 0 4.679688 -0.515625 3.640625 -1.546875 C 2.609375 -2.585938 2.09375 -4.082031 2.09375 -6.03125 L 2.09375 -10.4375 C 2.09375 -10.882812 2.316406 -11.109375 2.765625 -11.109375 L 7.125 -11.109375 C 7.570312 -11.109375 7.796875 -10.882812 7.796875 -10.4375 L 7.796875 -7.21875 C 7.796875 -6.09375 8.359375 -5.53125 9.484375 -5.53125 L 11.484375 -5.53125 C 12.609375 -5.53125 13.171875 -6.09375 13.171875 -7.21875 L 13.171875 -12.796875 L 3.234375 -16.0625 C 2.472656 -16.3125 2.09375 -16.828125 2.09375 -17.609375 L 2.09375 -27.515625 C 2.09375 -29.492188 2.609375 -30.992188 3.640625 -32.015625 C 4.679688 -33.035156 6.179688 -33.546875 8.140625 -33.546875 Z M 8.140625 -33.546875 "/></g></g></g></svg>