<svg xmlns="http://www.w3.org/2000/svg" xmlns:xlink="http://www.w3.org/1999/xlink" width="315" zoomAndPan="magnify" viewBox="0 0 236.25 118.499997" height="158" preserveAspectRatio="xMidYMid meet" version="1.0"><defs><g/><clipPath id="ab91b0600b"><path d="M 104.964844 0 L 129.613281 0 L 129.613281 26.855469 L 104.964844 26.855469 Z M 104.964844 0 " clip-rule="nonzero"/></clipPath></defs><g fill="#ba5c12" fill-opacity="1"><g transform="translate(62.991356, 110.55696)"><g><path d="M 4.566406 0 C 6.023438 0 6.871094 -0.871094 6.871094 -2.152344 C 6.871094 -3.105469 6.164062 -3.980469 5.316406 -4.109375 C 6.046875 -4.265625 6.714844 -4.933594 6.714844 -5.9375 C 6.714844 -7.132812 5.867188 -7.96875 4.480469 -7.96875 L 0.933594 -7.96875 L 0.933594 0 Z M 1.925781 -7.085938 L 4.3125 -7.085938 C 5.210938 -7.085938 5.6875 -6.511719 5.6875 -5.796875 C 5.6875 -5.066406 5.210938 -4.515625 4.3125 -4.515625 L 1.925781 -4.515625 Z M 1.925781 -3.632812 L 4.363281 -3.632812 C 5.339844 -3.632812 5.84375 -2.988281 5.84375 -2.257812 C 5.84375 -1.410156 5.292969 -0.882812 4.363281 -0.882812 L 1.925781 -0.882812 Z M 1.925781 -3.632812 "/></g></g></g><g fill="#ba5c12" fill-opacity="1"><g transform="translate(73.495055, 110.55696)"><g><path d="M 7.753906 0 L 4.539062 -7.96875 L 3.308594 -7.96875 L 0.109375 0 L 1.207031 0 L 1.910156 -1.769531 L 5.949219 -1.769531 L 6.65625 0 Z M 5.652344 -2.652344 L 2.199219 -2.652344 L 3.929688 -7.085938 Z M 5.652344 -2.652344 "/></g></g></g><g fill="#ba5c12" fill-opacity="1"><g transform="translate(84.345284, 110.55696)"><g><path d="M 6.714844 0 L 4.566406 -3.25 C 5.652344 -3.347656 6.632812 -4.132812 6.632812 -5.570312 C 6.632812 -7.039062 5.59375 -7.96875 4.132812 -7.96875 L 0.933594 -7.96875 L 0.933594 0 L 1.925781 0 L 1.925781 -3.167969 L 3.511719 -3.167969 L 5.542969 0 Z M 5.605469 -5.570312 C 5.605469 -4.671875 4.960938 -4.039062 4.015625 -4.039062 L 1.925781 -4.039062 L 1.925781 -7.085938 L 4.015625 -7.085938 C 4.960938 -7.085938 5.605469 -6.464844 5.605469 -5.570312 Z M 5.605469 -5.570312 "/></g></g></g><g fill="#ba5c12" fill-opacity="1"><g transform="translate(94.598043, 110.55696)"><g><path d="M 4.566406 0 C 6.023438 0 6.871094 -0.871094 6.871094 -2.152344 C 6.871094 -3.105469 6.164062 -3.980469 5.316406 -4.109375 C 6.046875 -4.265625 6.714844 -4.933594 6.714844 -5.9375 C 6.714844 -7.132812 5.867188 -7.96875 4.480469 -7.96875 L 0.933594 -7.96875 L 0.933594 0 Z M 1.925781 -7.085938 L 4.3125 -7.085938 C 5.210938 -7.085938 5.6875 -6.511719 5.6875 -5.796875 C 5.6875 -5.066406 5.210938 -4.515625 4.3125 -4.515625 L 1.925781 -4.515625 Z M 1.925781 -3.632812 L 4.363281 -3.632812 C 5.339844 -3.632812 5.84375 -2.988281 5.84375 -2.257812 C 5.84375 -1.410156 5.292969 -0.882812 4.363281 -0.882812 L 1.925781 -0.882812 Z M 1.925781 -3.632812 "/></g></g></g><g fill="#ba5c12" fill-opacity="1"><g transform="translate(105.101743, 110.55696)"><g><path d="M 6.152344 0 L 6.152344 -0.882812 L 1.925781 -0.882812 L 1.925781 -3.632812 L 6.070312 -3.632812 L 6.070312 -4.515625 L 1.925781 -4.515625 L 1.925781 -7.085938 L 6.152344 -7.085938 L 6.152344 -7.96875 L 0.933594 -7.96875 L 0.933594 0 Z M 6.152344 0 "/></g></g></g><g fill="#ba5c12" fill-opacity="1"><g transform="translate(114.888462, 110.55696)"><g><path d="M 6.714844 0 L 4.566406 -3.25 C 5.652344 -3.347656 6.632812 -4.132812 6.632812 -5.570312 C 6.632812 -7.039062 5.59375 -7.96875 4.132812 -7.96875 L 0.933594 -7.96875 L 0.933594 0 L 1.925781 0 L 1.925781 -3.167969 L 3.511719 -3.167969 L 5.542969 0 Z M 5.605469 -5.570312 C 5.605469 -4.671875 4.960938 -4.039062 4.015625 -4.039062 L 1.925781 -4.039062 L 1.925781 -7.085938 L 4.015625 -7.085938 C 4.960938 -7.085938 5.605469 -6.464844 5.605469 -5.570312 Z M 5.605469 -5.570312 "/></g></g></g><g fill="#ba5c12" fill-opacity="1"><g transform="translate(125.141221, 110.55696)"><g/></g></g><g fill="#ba5c12" fill-opacity="1"><g transform="translate(131.211612, 110.55696)"><g><path d="M 0.453125 -1.125 C 1.109375 -0.382812 2.128906 0.144531 3.511719 0.144531 C 5.664062 0.144531 6.453125 -1.039062 6.453125 -2.199219 C 6.453125 -3.871094 4.972656 -4.277344 3.667969 -4.625 C 2.652344 -4.898438 1.734375 -5.136719 1.734375 -5.9375 C 1.734375 -6.691406 2.414062 -7.207031 3.371094 -7.207031 C 4.242188 -7.207031 5.078125 -6.90625 5.675781 -6.25 L 6.273438 -6.980469 C 5.605469 -7.683594 4.660156 -8.089844 3.441406 -8.089844 C 1.875 -8.089844 0.703125 -7.195312 0.703125 -5.878906 C 0.703125 -4.3125 2.128906 -3.957031 3.40625 -3.621094 C 4.457031 -3.332031 5.425781 -3.070312 5.425781 -2.113281 C 5.425781 -1.503906 4.972656 -0.742188 3.550781 -0.742188 C 2.425781 -0.742188 1.566406 -1.289062 1.039062 -1.875 Z M 0.453125 -1.125 "/></g></g></g><g fill="#ba5c12" fill-opacity="1"><g transform="translate(141.201477, 110.55696)"><g><path d="M 7.574219 0 L 7.574219 -7.96875 L 6.585938 -7.96875 L 6.585938 -4.539062 L 1.925781 -4.539062 L 1.925781 -7.96875 L 0.933594 -7.96875 L 0.933594 0 L 1.925781 0 L 1.925781 -3.65625 L 6.585938 -3.65625 L 6.585938 0 Z M 7.574219 0 "/></g></g></g><g fill="#ba5c12" fill-opacity="1"><g transform="translate(152.696993, 110.55696)"><g><path d="M 0.609375 -3.980469 C 0.609375 -1.625 2.199219 0.144531 4.566406 0.144531 C 6.917969 0.144531 8.519531 -1.625 8.519531 -3.980469 C 8.519531 -6.332031 6.917969 -8.101562 4.566406 -8.101562 C 2.199219 -8.101562 0.609375 -6.332031 0.609375 -3.980469 Z M 7.492188 -3.980469 C 7.492188 -2.128906 6.34375 -0.742188 4.566406 -0.742188 C 2.773438 -0.742188 1.636719 -2.128906 1.636719 -3.980469 C 1.636719 -5.84375 2.773438 -7.21875 4.566406 -7.21875 C 6.34375 -7.21875 7.492188 -5.84375 7.492188 -3.980469 Z M 7.492188 -3.980469 "/></g></g></g><g fill="#ba5c12" fill-opacity="1"><g transform="translate(164.825831, 110.55696)"><g><path d="M 1.925781 0 L 1.925781 -3.167969 L 4.132812 -3.167969 C 5.710938 -3.167969 6.632812 -4.265625 6.632812 -5.570312 C 6.632812 -6.871094 5.734375 -7.96875 4.132812 -7.96875 L 0.933594 -7.96875 L 0.933594 0 Z M 5.605469 -5.570312 C 5.605469 -4.671875 4.960938 -4.050781 4.015625 -4.050781 L 1.925781 -4.050781 L 1.925781 -7.085938 L 4.015625 -7.085938 C 4.960938 -7.085938 5.605469 -6.464844 5.605469 -5.570312 Z M 5.605469 -5.570312 "/></g></g></g><g fill="#ccc5b9" fill-opacity="1"><g transform="translate(38.267825, 84.313109)"><g><path d="M 2.09375 -0.671875 L 2.09375 -32.796875 C 2.09375 -33.242188 2.316406 -33.46875 2.765625 -33.46875 L 12.796875 -33.46875 C 14.773438 -33.46875 16.273438 -32.953125 17.296875 -31.921875 C 18.316406 -30.890625 18.828125 -29.378906 18.828125 -27.390625 L 18.828125 -6.015625 C 18.828125 -4.066406 18.316406 -2.578125 17.296875 -1.546875 C 16.273438 -0.515625 14.773438 0 12.796875 0 L 2.765625 0 C 2.316406 0 2.09375 -0.222656 2.09375 -0.671875 Z M 7.78125 -5.515625 L 11.625 -5.515625 C 12.738281 -5.515625 13.296875 -6.070312 13.296875 -7.1875 L 13.296875 -26.21875 C 13.296875 -27.363281 12.738281 -27.9375 11.625 -27.9375 L 7.78125 -27.9375 Z M 7.78125 -5.515625 "/></g></g><g transform="translate(59.179589, 84.313109)"><g><path d="M 18.78125 -32.796875 L 18.78125 -28.609375 C 18.78125 -28.140625 18.554688 -27.90625 18.109375 -27.90625 L 7.65625 -27.90625 L 7.65625 -19.53125 L 15.640625 -19.53125 C 16.085938 -19.53125 16.3125 -19.296875 16.3125 -18.828125 L 16.3125 -14.6875 C 16.3125 -14.207031 16.085938 -13.96875 15.640625 -13.96875 L 7.65625 -13.96875 L 7.65625 -5.515625 L 18.109375 -5.515625 C 18.554688 -5.515625 18.78125 -5.296875 18.78125 -4.859375 L 18.78125 -0.671875 C 18.78125 -0.222656 18.554688 0 18.109375 0 L 2.71875 0 C 2.300781 0 2.09375 -0.222656 2.09375 -0.671875 L 2.09375 -32.796875 C 2.09375 -33.242188 2.300781 -33.46875 2.71875 -33.46875 L 18.109375 -33.46875 C 18.554688 -33.46875 18.78125 -33.242188 18.78125 -32.796875 Z M 18.78125 -32.796875 "/></g></g><g transform="translate(80.049528, 84.313109)"><g/></g><g transform="translate(90.50541, 84.313109)"><g><path d="M 20 0 L 15.5625 0 C 15.082031 0 14.757812 -0.207031 14.59375 -0.625 L 9.328125 -13.046875 L 7.78125 -10.078125 L 7.78125 -0.84375 C 7.78125 -0.28125 7.5 0 6.9375 0 L 2.921875 0 C 2.367188 0 2.09375 -0.28125 2.09375 -0.84375 L 2.09375 -32.625 C 2.09375 -33.1875 2.367188 -33.46875 2.921875 -33.46875 L 6.9375 -33.46875 C 7.5 -33.46875 7.78125 -33.1875 7.78125 -32.625 L 7.78125 -19.65625 L 14.21875 -32.828125 C 14.445312 -33.253906 14.769531 -33.46875 15.1875 -33.46875 L 19.578125 -33.46875 C 19.878906 -33.46875 20.085938 -33.375 20.203125 -33.1875 C 20.316406 -33.007812 20.300781 -32.765625 20.15625 -32.453125 L 13.046875 -17.859375 L 20.625 -0.96875 C 20.757812 -0.6875 20.769531 -0.453125 20.65625 -0.265625 C 20.550781 -0.0859375 20.332031 0 20 0 Z M 20 0 "/></g></g></g><g fill="#ccc5b9" fill-opacity="1"><g transform="translate(112.922813, 84.313109)"><g><path d="M 14.140625 -33.46875 L 17.984375 -33.46875 C 18.210938 -33.46875 18.410156 -33.378906 18.578125 -33.203125 C 18.742188 -33.035156 18.828125 -32.84375 18.828125 -32.625 L 18.828125 -6.015625 C 18.828125 -4.066406 18.316406 -2.578125 17.296875 -1.546875 C 16.273438 -0.515625 14.773438 0 12.796875 0 L 8.109375 0 C 6.160156 0 4.671875 -0.515625 3.640625 -1.546875 C 2.609375 -2.578125 2.09375 -4.066406 2.09375 -6.015625 L 2.09375 -32.625 C 2.09375 -32.84375 2.175781 -33.035156 2.34375 -33.203125 C 2.507812 -33.378906 2.703125 -33.46875 2.921875 -33.46875 L 6.9375 -33.46875 C 7.164062 -33.46875 7.363281 -33.378906 7.53125 -33.203125 C 7.695312 -33.035156 7.78125 -32.84375 7.78125 -32.625 L 7.78125 -7.1875 C 7.78125 -6.070312 8.335938 -5.515625 9.453125 -5.515625 L 11.625 -5.515625 C 12.738281 -5.515625 13.296875 -6.070312 13.296875 -7.1875 L 13.296875 -32.625 C 13.296875 -32.84375 13.378906 -33.035156 13.546875 -33.203125 C 13.710938 -33.378906 13.910156 -33.46875 14.140625 -33.46875 Z M 14.140625 -33.46875 "/></g></g><g transform="translate(133.834577, 84.313109)"><g><path d="M 18.859375 -27.4375 L 18.859375 -19.75 C 18.859375 -18.96875 18.609375 -18.3125 18.109375 -17.78125 C 17.609375 -17.25 16.984375 -16.910156 16.234375 -16.765625 L 16.234375 -16.6875 C 16.984375 -16.570312 17.609375 -16.242188 18.109375 -15.703125 C 18.609375 -15.160156 18.859375 -14.5 18.859375 -13.71875 L 18.859375 -6.015625 C 18.859375 -4.066406 18.34375 -2.578125 17.3125 -1.546875 C 16.28125 -0.515625 14.773438 0 12.796875 0 L 2.765625 0 C 2.316406 0 2.09375 -0.222656 2.09375 -0.671875 L 2.09375 -32.796875 C 2.09375 -33.242188 2.316406 -33.46875 2.765625 -33.46875 L 12.796875 -33.46875 C 14.773438 -33.46875 16.28125 -32.957031 17.3125 -31.9375 C 18.34375 -30.914062 18.859375 -29.414062 18.859375 -27.4375 Z M 13.296875 -21.125 L 13.296875 -26.265625 C 13.296875 -27.378906 12.738281 -27.9375 11.625 -27.9375 L 7.828125 -27.9375 L 7.828125 -19.484375 L 11.625 -19.484375 C 12.738281 -19.484375 13.296875 -20.03125 13.296875 -21.125 Z M 13.296875 -7.1875 L 13.296875 -12.296875 C 13.296875 -13.410156 12.738281 -13.96875 11.625 -13.96875 L 7.828125 -13.96875 L 7.828125 -5.515625 L 11.625 -5.515625 C 12.738281 -5.515625 13.296875 -6.070312 13.296875 -7.1875 Z M 13.296875 -7.1875 "/></g></g><g transform="translate(154.788163, 84.313109)"><g><path d="M 18.78125 -32.796875 L 18.78125 -28.609375 C 18.78125 -28.140625 18.554688 -27.90625 18.109375 -27.90625 L 7.65625 -27.90625 L 7.65625 -19.53125 L 15.640625 -19.53125 C 16.085938 -19.53125 16.3125 -19.296875 16.3125 -18.828125 L 16.3125 -14.6875 C 16.3125 -14.207031 16.085938 -13.96875 15.640625 -13.96875 L 7.65625 -13.96875 L 7.65625 -5.515625 L 18.109375 -5.515625 C 18.554688 -5.515625 18.78125 -5.296875 18.78125 -4.859375 L 18.78125 -0.671875 C 18.78125 -0.222656 18.554688 0 18.109375 0 L 2.71875 0 C 2.300781 0 2.09375 -0.222656 2.09375 -0.671875 L 2.09375 -32.796875 C 2.09375 -33.242188 2.300781 -33.46875 2.71875 -33.46875 L 18.109375 -33.46875 C 18.554688 -33.46875 18.78125 -33.242188 18.78125 -32.796875 Z M 18.78125 -32.796875 "/></g></g><g transform="translate(175.658103, 84.313109)"><g><path d="M 8.109375 -33.46875 L 12.796875 -33.46875 C 14.773438 -33.46875 16.273438 -32.957031 17.296875 -31.9375 C 18.316406 -30.914062 18.828125 -29.414062 18.828125 -27.4375 L 18.828125 -23 C 18.828125 -22.5625 18.601562 -22.34375 18.15625 -22.34375 L 13.796875 -22.34375 C 13.359375 -22.34375 13.140625 -22.5625 13.140625 -23 L 13.140625 -26.265625 C 13.140625 -27.378906 12.578125 -27.9375 11.453125 -27.9375 L 9.453125 -27.9375 C 8.335938 -27.9375 7.78125 -27.378906 7.78125 -26.265625 L 7.78125 -20.5 L 17.734375 -17.234375 C 18.460938 -16.921875 18.828125 -16.40625 18.828125 -15.6875 L 18.828125 -6.015625 C 18.828125 -4.066406 18.316406 -2.578125 17.296875 -1.546875 C 16.273438 -0.515625 14.773438 0 12.796875 0 L 8.109375 0 C 6.160156 0 4.671875 -0.515625 3.640625 -1.546875 C 2.609375 -2.578125 2.09375 -4.066406 2.09375 -6.015625 L 2.09375 -10.421875 C 2.09375 -10.859375 2.316406 -11.078125 2.765625 -11.078125 L 7.109375 -11.078125 C 7.554688 -11.078125 7.78125 -10.859375 7.78125 -10.421875 L 7.78125 -7.1875 C 7.78125 -6.070312 8.335938 -5.515625 9.453125 -5.515625 L 11.453125 -5.515625 C 12.578125 -5.515625 13.140625 -6.070312 13.140625 -7.1875 L 13.140625 -12.75 L 3.21875 -16.015625 C 2.46875 -16.265625 2.09375 -16.78125 2.09375 -17.5625 L 2.09375 -27.4375 C 2.09375 -29.414062 2.609375 -30.914062 3.640625 -31.9375 C 4.671875 -32.957031 6.160156 -33.46875 8.109375 -33.46875 Z M 8.109375 -33.46875 "/></g></g></g><g clip-path="url(#ab91b0600b)"><path fill="#ba5c12" d="M 129.238281 17.921875 C 128.203125 15.882812 126.140625 14.613281 123.855469 14.613281 C 123.191406 14.613281 122.527344 14.726562 121.894531 14.941406 L 119.542969 12.039062 L 127.128906 2.667969 C 127.699219 1.964844 127.585938 0.925781 126.882812 0.351562 C 126.179688 -0.21875 125.140625 -0.105469 124.570312 0.597656 L 117.425781 9.421875 L 110.277344 0.601562 C 109.703125 -0.105469 108.671875 -0.210938 107.964844 0.359375 C 107.253906 0.929688 107.148438 1.964844 107.71875 2.667969 L 115.304688 12.03125 L 112.953125 14.9375 C 112.320312 14.71875 111.65625 14.609375 110.992188 14.609375 C 108.707031 14.609375 106.640625 15.875 105.609375 17.914062 C 104.113281 20.882812 105.308594 24.511719 108.273438 26.011719 C 109.113281 26.4375 110.046875 26.660156 110.988281 26.660156 C 113.273438 26.660156 115.335938 25.390625 116.367188 23.355469 C 117.472656 21.167969 117.113281 18.617188 115.660156 16.828125 L 117.425781 14.648438 L 119.195312 16.828125 C 118.734375 17.394531 118.375 18.046875 118.144531 18.761719 C 117.636719 20.292969 117.761719 21.921875 118.492188 23.363281 C 119.523438 25.398438 121.585938 26.667969 123.875 26.667969 C 124.808594 26.667969 125.746094 26.445312 126.589844 26.015625 C 129.539062 24.511719 130.734375 20.882812 129.238281 17.921875 Z M 113.429688 21.871094 C 112.964844 22.796875 112.023438 23.375 110.988281 23.375 C 110.558594 23.375 110.144531 23.277344 109.757812 23.078125 C 108.410156 22.394531 107.863281 20.746094 108.546875 19.398438 C 109.015625 18.472656 109.953125 17.894531 110.992188 17.894531 C 111.421875 17.894531 111.835938 17.992188 112.222656 18.191406 C 113.574219 18.875 114.113281 20.523438 113.429688 21.871094 Z M 125.089844 23.078125 C 124.703125 23.277344 124.289062 23.375 123.859375 23.375 C 122.824219 23.375 121.882812 22.796875 121.417969 21.871094 C 121.085938 21.21875 121.027344 20.476562 121.257812 19.78125 C 121.488281 19.082031 121.96875 18.519531 122.625 18.191406 C 123.011719 17.992188 123.425781 17.894531 123.855469 17.894531 C 124.894531 17.894531 125.832031 18.472656 126.300781 19.398438 C 126.984375 20.746094 126.445312 22.394531 125.089844 23.078125 Z M 125.089844 23.078125 " fill-opacity="1" fill-rule="nonzero"/></g></svg>